<svg version="1.1" viewBox="0.0 0.0 1133.5118110236222 456.3490813648294" fill="none" stroke="none" stroke-linecap="square" stroke-miterlimit="10" xmlns:xlink="http://www.w3.org/1999/xlink" xmlns="http://www.w3.org/2000/svg"><clipPath id="p.0"><path d="m0 0l1133.5118 0l0 456.3491l-1133.5118 0l0 -456.3491z" clip-rule="nonzero"/></clipPath><g clip-path="url(#p.0)"><path fill="#000000" fill-opacity="0.0" d="m0 0l1133.5118 0l0 456.3491l-1133.5118 0z" fill-rule="evenodd"/><path fill="#1c4587" d="m0 30.850393l394.64566 0l0 394.64566l-394.64566 0z" fill-rule="evenodd"/><path fill="#ffff00" d="m222.2966 75.05005l9.165344 4.902542l0 10.593521l-9.165344 -4.9025497z" fill-rule="evenodd"/><path fill="#ffff00" d="m223.16895 73.81233l9.1653595 -4.8346405l9.1653595 4.8346405l-9.1653595 4.834648z" fill-rule="evenodd"/><path fill="#ffff00" d="m242.375 75.05005l-9.165344 4.902542l0 10.593521l9.165344 -4.9025497z" fill-rule="evenodd"/><path fill="#ffff00" d="m333.20044 181.71042l9.165344 4.9025574l0 10.593506l-9.165344 -4.902542z" fill-rule="evenodd"/><path fill="#ffff00" d="m334.07278 180.47272l9.165344 -4.834656l9.165375 4.834656l-9.165375 4.8346405z" fill-rule="evenodd"/><path fill="#ffff00" d="m353.27884 181.71042l-9.165344 4.9025574l0 10.593506l9.165344 -4.902542z" fill-rule="evenodd"/><path fill="#ffff00" d="m149.84329 75.05005l9.1653595 4.902542l0 10.593521l-9.1653595 -4.9025497z" fill-rule="evenodd"/><path fill="#ffff00" d="m150.71565 73.81233l9.1653595 -4.8346405l9.165344 4.8346405l-9.165344 4.834648z" fill-rule="evenodd"/><path fill="#ffff00" d="m169.9217 75.05005l-9.1653595 4.902542l0 10.593521l9.1653595 -4.9025497z" fill-rule="evenodd"/><path fill="#ffff00" d="m149.84329 367.84677l9.1653595 4.902527l0 10.593536l-9.1653595 -4.9025574z" fill-rule="evenodd"/><path fill="#ffff00" d="m150.71565 366.60904l9.1653595 -4.8346252l9.165344 4.8346252l-9.165344 4.834656z" fill-rule="evenodd"/><path fill="#ffff00" d="m169.9217 367.84677l-9.1653595 4.902527l0 10.593536l9.1653595 -4.9025574z" fill-rule="evenodd"/><path fill="#ffff00" d="m222.2966 367.84677l9.165344 4.902527l0 10.593536l-9.165344 -4.9025574z" fill-rule="evenodd"/><path fill="#ffff00" d="m223.16895 366.60904l9.1653595 -4.8346252l9.1653595 4.8346252l-9.1653595 4.834656z" fill-rule="evenodd"/><path fill="#ffff00" d="m242.375 367.84677l-9.165344 4.902527l0 10.593536l9.165344 -4.9025574z" fill-rule="evenodd"/><path fill="#ffff00" d="m285.0884 331.508l9.165344 4.902527l0 10.593536l-9.165344 -4.9025574z" fill-rule="evenodd"/><path fill="#ffff00" d="m285.96075 330.27026l9.165344 -4.8346252l9.165375 4.8346252l-9.165375 4.834656z" fill-rule="evenodd"/><path fill="#ffff00" d="m305.1668 331.508l-9.165344 4.902527l0 10.593536l9.165344 -4.9025574z" fill-rule="evenodd"/><path fill="#ffff00" d="m332.33676 258.18863l9.165344 4.9025574l0 10.593506l-9.165344 -4.9025574z" fill-rule="evenodd"/><path fill="#ffff00" d="m333.2091 256.95093l9.165375 -4.834656l9.165344 4.834656l-9.165344 4.834656z" fill-rule="evenodd"/><path fill="#ffff00" d="m352.41516 258.18863l-9.165344 4.9025574l0 10.593506l9.165344 -4.9025574z" fill-rule="evenodd"/><path fill="#ffff00" d="m295.99786 115.41399l9.165344 4.9025497l0 10.5935135l-9.165344 -4.9025497z" fill-rule="evenodd"/><path fill="#ffff00" d="m296.8702 114.17628l9.165375 -4.834648l9.165344 4.834648l-9.165344 4.834648z" fill-rule="evenodd"/><path fill="#ffff00" d="m316.07626 115.41399l-9.165344 4.9025497l0 10.5935135l9.165344 -4.9025497z" fill-rule="evenodd"/><path fill="#000000" fill-opacity="0.0" d="m0.015771128 130.89764l394.64566 0l0 194.55118l-394.64566 0z" fill-rule="evenodd"/><path fill="#ffffff" d="m125.66474 230.26698l-20.53125 0l0 16.796875l23.859383 0l0 5.109375l-30.109383 0l0 -47.390625l29.781258 0l0 5.140625l-23.531258 0l0 15.234375l20.53125 0l0 5.109375zm44.462837 -25.484375l0 32.21875q-0.03125 6.703125 -4.21875 10.96875q-4.171875 4.265625 -11.34375 4.78125l-1.65625 0.078125q-7.78125 0 -12.40625 -4.203125q-4.609375 -4.203125 -4.671875 -11.5625l0 -32.28125l6.171875 0l0 32.09375q0 5.140625 2.828125 8.0q2.84375 2.84375 8.078125 2.84375q5.3125 0 8.125 -2.828125q2.8125 -2.84375 2.8125 -7.984375l0 -32.125l6.28125 0zm9.863037 47.390625l0 -47.390625l13.375 0q6.1875 0 10.9375 2.734375q4.75 2.734375 7.328125 7.78125q2.59375 5.046875 2.625 11.59375l0 3.015625q0 6.703125 -2.59375 11.75q-2.578125 5.046875 -7.375 7.75q-4.796875 2.703125 -11.1875 2.765625l-13.109375 0zm6.25 -42.25l0 37.140625l6.578125 0q7.21875 0 11.234375 -4.484375q4.03125 -4.5 4.03125 -12.796875l0 -2.765625q0 -8.078125 -3.796875 -12.546875q-3.796875 -4.484375 -10.75 -4.546875l-7.296875 0zm43.710617 23.703125l0 18.546875l-6.25 0l0 -47.390625l17.484375 0q7.765625 0 12.171875 3.96875q4.421875 3.96875 4.421875 10.515625q0 6.90625 -4.3125 10.640625q-4.3125 3.71875 -12.359375 3.71875l-11.15625 0zm0 -5.109375l11.234375 0q5.0 0 7.671875 -2.359375q2.671875 -2.359375 2.671875 -6.828125q0 -4.234375 -2.671875 -6.765625q-2.671875 -2.53125 -7.3125 -2.640625l-11.59375 0l0 18.59375zm53.17572 4.484375l-11.125 0l0 19.171875l-6.28125 0l0 -47.390625l15.6875 0q8.0 0 12.3125 3.65625q4.3125 3.640625 4.3125 10.59375q0 4.4375 -2.390625 7.734375q-2.390625 3.28125 -6.65625 4.90625l11.140625 20.109375l0 0.390625l-6.703125 0l-10.296875 -19.171875zm-11.125 -5.109375l9.59375 0q4.65625 0 7.40625 -2.40625q2.75 -2.40625 2.75 -6.453125q0 -4.390625 -2.625 -6.734375q-2.609375 -2.34375 -7.5625 -2.375l-9.5625 0l0 17.96875z" fill-rule="nonzero"/><path fill="#ffff00" d="m58.375008 181.71042l-9.165356 4.9025574l0 10.593506l9.165356 -4.902542z" fill-rule="evenodd"/><path fill="#ffff00" d="m57.502647 180.47272l-9.165352 -4.834656l-9.165356 4.834656l9.165356 4.8346405z" fill-rule="evenodd"/><path fill="#ffff00" d="m38.296593 181.71042l9.165356 4.9025574l0 10.593506l-9.165356 -4.902542z" fill-rule="evenodd"/><path fill="#ffff00" d="m106.48704 331.508l-9.165352 4.902527l0 10.593536l9.165352 -4.9025574z" fill-rule="evenodd"/><path fill="#ffff00" d="m105.614685 330.27026l-9.1653595 -4.8346252l-9.165352 4.8346252l9.165352 4.834656z" fill-rule="evenodd"/><path fill="#ffff00" d="m86.40863 331.508l9.165352 4.902527l0 10.593536l-9.165352 -4.9025574z" fill-rule="evenodd"/><path fill="#ffff00" d="m59.238678 258.18863l-9.165356 4.9025574l0 10.593506l9.165356 -4.9025574z" fill-rule="evenodd"/><path fill="#ffff00" d="m58.36632 256.95093l-9.165356 -4.834656l-9.165356 4.834656l9.165356 4.834656z" fill-rule="evenodd"/><path fill="#ffff00" d="m39.160267 258.18863l9.165352 4.9025574l0 10.593506l-9.165352 -4.9025574z" fill-rule="evenodd"/><path fill="#ffff00" d="m95.577576 115.41399l-9.165352 4.9025497l0 10.5935135l9.165352 -4.9025497z" fill-rule="evenodd"/><path fill="#ffff00" d="m94.70522 114.17628l-9.1653595 -4.834648l-9.165352 4.834648l9.165352 4.834648z" fill-rule="evenodd"/><path fill="#ffff00" d="m75.49917 115.41399l9.165352 4.9025497l0 10.5935135l-9.165352 -4.9025497z" fill-rule="evenodd"/><path fill="#000000" fill-opacity="0.0" d="m426.66147 30.850393l600.063 0l0 394.64566l-600.063 0z" fill-rule="evenodd"/><path fill="#000000" d="m474.41147 134.67635l-24.640625 0l0 20.15625l28.625 0l0 6.140625l-36.125 0l0 -56.874992l35.734375 0l0 6.171875l-28.234375 0l0 18.281242l24.640625 0l0 6.125zm38.28122 22.109375q-4.2187195 4.96875 -12.3749695 4.96875q-6.765625 0 -10.296875 -3.921875q-3.53125 -3.9375 -3.578125 -11.625l0 -27.499992l7.234375 0l0 27.296867q0 9.609375 7.8125 9.609375q8.28125 0 11.0155945 -6.171875l0 -30.734367l7.21875 0l0 42.265617l-6.875 0l-0.15625 -4.1875zm38.445312 -31.593742q-1.640625 -0.28125 -3.5625 -0.28125q-7.109375 0 -9.640625 6.0624924l0 30.0l-7.234375 0l0 -42.265617l7.03125 0l0.125 4.875q3.546875 -5.65625 10.078125 -5.65625q2.109375 0 3.203125 0.546875l0 6.71875zm4.7265625 14.249992q0 -6.203125 2.4375 -11.15625q2.4375 -4.9687424 6.796875 -7.6562424q4.359375 -2.703125 9.9375 -2.703125q8.640625 0 13.96875 5.984375q5.328125 5.9687424 5.328125 15.890617l0 0.5q0 6.171875 -2.359375 11.078125q-2.359375 4.90625 -6.765625 7.640625q-4.390625 2.734375 -10.09375 2.734375q-8.59375 0 -13.921875 -5.96875q-5.328125 -5.984375 -5.328125 -15.828125l0 -0.515625zm7.265625 0.859375q0 7.03125 3.25 11.296875q3.265625 4.25 8.734375 4.25q5.515625 0 8.75 -4.3125q3.25 -4.3125 3.25 -12.09375q0 -6.953125 -3.3125 -11.265625q-3.296875 -4.3124924 -8.765625 -4.3124924q-5.34375 0 -8.625 4.2656174q-3.28125 4.25 -3.28125 12.171875zm75.96875 0q0 9.65625 -4.421875 15.5625q-4.40625 5.890625 -11.9375 5.890625q-7.703125 0 -12.109375 -4.890625l0 20.359375l-7.234375 0l0 -58.515617l6.609375 0l0.34375 4.6875q4.421875 -5.46875 12.265625 -5.46875q7.625 0 12.046875 5.75q4.4375 5.7343674 4.4375 15.968742l0 0.65625zm-7.21875 -0.8125q0 -7.15625 -3.046875 -11.296875q-3.046875 -4.1406174 -8.359375 -4.1406174q-6.5625 0 -9.84375 5.8281174l0 20.1875q3.234375 5.78125 9.921875 5.78125q5.1875 0 8.25 -4.109375q3.078125 -4.125 3.078125 -12.25zm33.945312 22.265625q-8.59375 0 -13.984375 -5.640625q-5.390625 -5.65625 -5.390625 -15.109375l0 -1.328125q0 -6.28125 2.390625 -11.21875q2.40625 -4.9531174 6.71875 -7.7343674q4.328125 -2.796875 9.359375 -2.796875q8.25 0 12.8125 5.4375q4.578125 5.4218674 4.578125 15.531242l0 3.015625l-28.640625 0q0.15625 6.25 3.65625 10.09375q3.5 3.84375 8.890625 3.84375q3.828125 0 6.484375 -1.5625q2.65625 -1.5625 4.640625 -4.140625l4.421875 3.4375q-5.3125 8.171875 -15.9375 8.171875zm-0.90625 -37.890617q-4.375 0 -7.34375 3.1875q-2.96875 3.1718674 -3.671875 8.921867l21.171875 0l0 -0.546875q-0.3125 -5.515625 -2.96875 -8.531242q-2.65625 -3.03125 -7.1875 -3.03125zm51.835938 37.109367q-0.625 -1.25 -1.015625 -4.453125q-5.03125 5.234375 -12.03125 5.234375q-6.25 0 -10.25 -3.53125q-4.0 -3.546875 -4.0 -8.96875q0 -6.609375 5.015625 -10.25q5.015625 -3.65625 14.125 -3.65625l7.03125 0l0 -3.328125q0 -3.78125 -2.265625 -6.0312424q-2.265625 -2.25 -6.6875 -2.25q-3.859375 0 -6.484375 1.953125q-2.609375 1.953125 -2.609375 4.7343674l-7.265625 0q0 -3.1718674 2.234375 -6.1093674q2.25 -2.953125 6.09375 -4.671875q3.859375 -1.71875 8.46875 -1.71875q7.296875 0 11.4375 3.65625q4.140625 3.640625 4.296875 10.046867l0 19.453125q0 5.828125 1.484375 9.265625l0 0.625l-7.578125 0zm-11.984375 -5.515625q3.390625 0 6.4375 -1.75q3.046875 -1.765625 4.421875 -4.578125l0 -8.671875l-5.671875 0q-13.28125 0 -13.28125 7.78125q0 3.390625 2.265625 5.3125q2.265625 1.90625 5.828125 1.90625zm36.25 -36.749992l0.234375 5.3125q4.84375 -6.09375 12.65625 -6.09375q13.390625 0 13.515625 15.109367l0 27.9375l-7.234375 0l0 -27.96875q-0.03125 -4.578125 -2.09375 -6.7656174q-2.046875 -2.1875 -6.375 -2.1875q-3.515625 0 -6.171875 1.875q-2.65625 1.875 -4.140625 4.9218674l0 30.125l-7.234375 0l0 -42.265617l6.84375 0zm98.27344 -14.609375l0 38.671867q-0.03125 8.046875 -5.0625 13.171875q-5.015625 5.109375 -13.609375 5.734375l-1.984375 0.078125q-9.34375 0 -14.890625 -5.03125q-5.546875 -5.046875 -5.625 -13.875l0 -38.749992l7.421875 0l0 38.515617q0 6.171875 3.390625 9.59375q3.40625 3.40625 9.703125 3.40625q6.359375 0 9.734375 -3.390625q3.390625 -3.40625 3.390625 -9.578125l0 -38.546867l7.53125 0zm17.546875 14.609375l0.234375 5.3125q4.84375 -6.09375 12.65625 -6.09375q13.390625 0 13.515625 15.109367l0 27.9375l-7.234375 0l0 -27.96875q-0.03125 -4.578125 -2.09375 -6.7656174q-2.046875 -2.1875 -6.375 -2.1875q-3.515625 0 -6.171875 1.875q-2.65625 1.875 -4.140625 4.9218674l0 30.125l-7.234375 0l0 -42.265617l6.84375 0zm45.15625 42.265617l-7.234375 0l0 -42.265617l7.234375 0l0 42.265617zm-7.8125 -53.484367q0 -1.75 1.0625 -2.953125q1.078125 -1.21875 3.1875 -1.21875q2.109375 0 3.203125 1.21875q1.09375 1.203125 1.09375 2.96875q0 1.75 -1.09375 2.921875q-1.09375 1.171875 -3.203125 1.171875q-2.109375 0 -3.1875 -1.171875q-1.0625 -1.171875 -1.0625 -2.9375zm17.460938 31.953117q0 -6.203125 2.4375 -11.15625q2.4375 -4.9687424 6.796875 -7.6562424q4.359375 -2.703125 9.9375 -2.703125q8.640625 0 13.96875 5.984375q5.328125 5.9687424 5.328125 15.890617l0 0.5q0 6.171875 -2.359375 11.078125q-2.359375 4.90625 -6.765625 7.640625q-4.390625 2.734375 -10.09375 2.734375q-8.59375 0 -13.921875 -5.96875q-5.328125 -5.984375 -5.328125 -15.828125l0 -0.515625zm7.265625 0.859375q0 7.03125 3.25 11.296875q3.265625 4.25 8.734375 4.25q5.515625 0 8.75 -4.3125q3.25 -4.3125 3.25 -12.09375q0 -6.953125 -3.3125 -11.265625q-3.296875 -4.3124924 -8.765625 -4.3124924q-5.34375 0 -8.625 4.2656174q-3.28125 4.25 -3.28125 12.171875zm47.109375 -21.593742l0.234375 5.3125q4.84375 -6.09375 12.65625 -6.09375q13.390625 0 13.515625 15.109367l0 27.9375l-7.234375 0l0 -27.96875q-0.03125 -4.578125 -2.09375 -6.7656174q-2.046875 -2.1875 -6.375 -2.1875q-3.515625 0 -6.171875 1.875q-2.65625 1.875 -4.140625 4.9218674l0 30.125l-7.234375 0l0 -42.265617l6.84375 0z" fill-rule="nonzero"/><path fill="#000000" d="m442.27084 256.97324l0 -56.875015l16.046875 0q7.421875 0 13.125 3.28125q5.703125 3.28125 8.8125 9.34375q3.109375 6.046875 3.140625 13.890625l0 3.640625q0 8.046875 -3.109375 14.109375q-3.09375 6.046875 -8.859375 9.296875q-5.765625 3.2343903 -13.421875 3.3125153l-15.734375 0zm7.5 -50.70314l0 44.5625l7.890625 0q8.671875 0 13.484375 -5.390625q4.828125 -5.390625 4.828125 -15.34375l0 -3.328125q0 -9.6875 -4.546875 -15.046875q-4.546875 -5.375 -12.90625 -5.453125l-8.75 0zm69.91403 50.70314q-0.625 -1.2500153 -1.015625 -4.4531403q-5.03125 5.2343903 -12.0312195 5.2343903q-6.25 0 -10.25 -3.5312653q-4.0 -3.546875 -4.0 -8.96875q0 -6.609375 5.015625 -10.25q5.015625 -3.65625 14.125 -3.65625l7.0312195 0l0 -3.328125q0 -3.78125 -2.265625 -6.03125q-2.265625 -2.25 -6.6874695 -2.25q-3.859375 0 -6.484375 1.953125q-2.609375 1.953125 -2.609375 4.734375l-7.265625 0q0 -3.171875 2.234375 -6.109375q2.25 -2.953125 6.09375 -4.671875q3.859375 -1.71875 8.46875 -1.71875q7.2968445 0 11.4374695 3.65625q4.140625 3.640625 4.296875 10.046875l0 19.453125q0 5.828125 1.484375 9.26564l0 0.625l-7.578125 0zm-11.9843445 -5.5156403q3.390625 0 6.4374695 -1.75q3.046875 -1.765625 4.421875 -4.578125l0 -8.671875l-5.671875 0q-13.2812195 0 -13.2812195 7.78125q0 3.390625 2.265625 5.3125q2.265625 1.90625 5.828125 1.90625zm39.21872 -46.984375l0 10.234375l7.890625 0l0 5.578125l-7.890625 0l0 26.21875q0 2.53125 1.046875 3.8125q1.0625 1.265625 3.59375 1.265625q1.25 0 3.4375 -0.46875l0 5.8593903q-2.84375 0.78125 -5.546875 0.78125q-4.84375 0 -7.3125 -2.9218903q-2.453125 -2.9375 -2.453125 -8.328125l0 -26.21875l-7.6875 0l0 -5.578125l7.6875 0l0 -10.234375l7.234375 0zm42.414062 52.500015q-0.625 -1.2500153 -1.015625 -4.4531403q-5.03125 5.2343903 -12.03125 5.2343903q-6.25 0 -10.25 -3.5312653q-4.0 -3.546875 -4.0 -8.96875q0 -6.609375 5.015625 -10.25q5.015625 -3.65625 14.125 -3.65625l7.03125 0l0 -3.328125q0 -3.78125 -2.265625 -6.03125q-2.265625 -2.25 -6.6875 -2.25q-3.859375 0 -6.484375 1.953125q-2.609375 1.953125 -2.609375 4.734375l-7.265625 0q0 -3.171875 2.234375 -6.109375q2.25 -2.953125 6.09375 -4.671875q3.859375 -1.71875 8.46875 -1.71875q7.296875 0 11.4375 3.65625q4.140625 3.640625 4.296875 10.046875l0 19.453125q0 5.828125 1.484375 9.26564l0 0.625l-7.578125 0zm-11.984375 -5.5156403q3.390625 0 6.4375 -1.75q3.046875 -1.765625 4.421875 -4.578125l0 -8.671875l-5.671875 0q-13.28125 0 -13.28125 7.78125q0 3.390625 2.265625 5.3125q2.265625 1.90625 5.828125 1.90625zm57.851562 -16.75l0 22.26564l-7.5 0l0 -56.875015l20.96875 0q9.34375 0 14.625 4.765625q5.296875 4.765625 5.296875 12.609375q0 8.28125 -5.171875 12.765625q-5.171875 4.46875 -14.828125 4.46875l-13.390625 0zm0 -6.140625l13.46875 0q6.015625 0 9.21875 -2.828125q3.203125 -2.828125 3.203125 -8.1875q0 -5.078125 -3.203125 -8.125q-3.203125 -3.046875 -8.78125 -3.15625l-13.90625 0l0 22.296875zm62.265625 -7.375q-1.640625 -0.28125 -3.5625 -0.28125q-7.109375 0 -9.640625 6.0625l0 30.000015l-7.234375 0l0 -42.26564l7.03125 0l0.125 4.875q3.546875 -5.65625 10.078125 -5.65625q2.109375 0 3.203125 0.546875l0 6.71875zm4.7265625 14.25q0 -6.203125 2.4375 -11.15625q2.4375 -4.96875 6.796875 -7.65625q4.359375 -2.703125 9.9375 -2.703125q8.640625 0 13.96875 5.984375q5.328125 5.96875 5.328125 15.890625l0 0.5q0 6.171875 -2.359375 11.078125q-2.359375 4.90625 -6.765625 7.640625q-4.390625 2.7343903 -10.09375 2.7343903q-8.59375 0 -13.921875 -5.9687653q-5.328125 -5.984375 -5.328125 -15.828125l0 -0.515625zm7.265625 0.859375q0 7.03125 3.25 11.296875q3.265625 4.25 8.734375 4.25q5.515625 0 8.75 -4.3125q3.25 -4.3125 3.25 -12.09375q0 -6.953125 -3.3125 -11.265625q-3.296875 -4.3125 -8.765625 -4.3125q-5.34375 0 -8.625 4.265625q-3.28125 4.25 -3.28125 12.171875zm50.078125 -31.828125l0 10.234375l7.890625 0l0 5.578125l-7.890625 0l0 26.21875q0 2.53125 1.046875 3.8125q1.0625 1.265625 3.59375 1.265625q1.25 0 3.4375 -0.46875l0 5.8593903q-2.84375 0.78125 -5.546875 0.78125q-4.84375 0 -7.3125 -2.9218903q-2.453125 -2.9375 -2.453125 -8.328125l0 -26.21875l-7.6875 0l0 -5.578125l7.6875 0l0 -10.234375l7.234375 0zm33.867188 53.281265q-8.59375 0 -13.984375 -5.6406403q-5.390625 -5.65625 -5.390625 -15.109375l0 -1.328125q0 -6.28125 2.390625 -11.21875q2.40625 -4.953125 6.71875 -7.734375q4.328125 -2.796875 9.359375 -2.796875q8.25 0 12.8125 5.4375q4.578125 5.421875 4.578125 15.53125l0 3.015625l-28.640625 0q0.15625 6.25 3.65625 10.09375q3.5 3.84375 8.890625 3.84375q3.828125 0 6.484375 -1.5625q2.65625 -1.5625 4.640625 -4.140625l4.421875 3.4375q-5.3125 8.17189 -15.9375 8.17189zm-0.90625 -37.89064q-4.375 0 -7.34375 3.1875q-2.96875 3.171875 -3.671875 8.921875l21.171875 0l0 -0.546875q-0.3125 -5.515625 -2.96875 -8.53125q-2.65625 -3.03125 -7.1875 -3.03125zm42.695312 31.984375q3.875 0 6.765625 -2.34375q2.890625 -2.34375 3.203125 -5.859375l6.828125 0q-0.1875 3.640625 -2.5 6.921875q-2.296875 3.28125 -6.15625 5.234375q-3.84375 1.9531403 -8.140625 1.9531403q-8.625 0 -13.734375 -5.7656403q-5.09375 -5.765625 -5.09375 -15.765625l0 -1.203125q0 -6.171875 2.265625 -10.96875q2.265625 -4.8125 6.5 -7.46875q4.25 -2.65625 10.03125 -2.65625q7.109375 0 11.8125 4.265625q4.703125 4.25 5.015625 11.046875l-6.828125 0q-0.3125 -4.109375 -3.109375 -6.734375q-2.796875 -2.640625 -6.890625 -2.640625q-5.515625 0 -8.546875 3.96875q-3.015625 3.953125 -3.015625 11.453125l0 1.375q0 7.296875 3.0 11.25q3.015625 3.9375 8.59375 3.9375zm34.734375 -47.375l0 10.234375l7.890625 0l0 5.578125l-7.890625 0l0 26.21875q0 2.53125 1.046875 3.8125q1.0625 1.265625 3.59375 1.265625q1.25 0 3.4375 -0.46875l0 5.8593903q-2.84375 0.78125 -5.546875 0.78125q-4.84375 0 -7.3125 -2.9218903q-2.453125 -2.9375 -2.453125 -8.328125l0 -26.21875l-7.6875 0l0 -5.578125l7.6875 0l0 -10.234375l7.234375 0zm24.179688 52.500015l-7.234375 0l0 -42.26564l7.234375 0l0 42.26564zm-7.8125 -53.48439q0 -1.75 1.0625 -2.953125q1.078125 -1.21875 3.1875 -1.21875q2.109375 0 3.203125 1.21875q1.09375 1.203125 1.09375 2.96875q0 1.75 -1.09375 2.921875q-1.09375 1.171875 -3.203125 1.171875q-2.109375 0 -3.1875 -1.171875q-1.0625 -1.171875 -1.0625 -2.9375zm17.460938 31.953125q0 -6.203125 2.4375 -11.15625q2.4375 -4.96875 6.796875 -7.65625q4.359375 -2.703125 9.9375 -2.703125q8.640625 0 13.96875 5.984375q5.328125 5.96875 5.328125 15.890625l0 0.5q0 6.171875 -2.359375 11.078125q-2.359375 4.90625 -6.765625 7.640625q-4.390625 2.7343903 -10.09375 2.7343903q-8.59375 0 -13.921875 -5.9687653q-5.328125 -5.984375 -5.328125 -15.828125l0 -0.515625zm7.265625 0.859375q0 7.03125 3.25 11.296875q3.265625 4.25 8.734375 4.25q5.515625 0 8.75 -4.3125q3.25 -4.3125 3.25 -12.09375q0 -6.953125 -3.3125 -11.265625q-3.296875 -4.3125 -8.765625 -4.3125q-5.34375 0 -8.625 4.265625q-3.28125 4.25 -3.28125 12.171875zm47.109375 -21.59375l0.234375 5.3125q4.84375 -6.09375 12.65625 -6.09375q13.390625 0 13.515625 15.109375l0 27.937515l-7.234375 0l0 -27.968765q-0.03125 -4.578125 -2.09375 -6.765625q-2.046875 -2.1875 -6.375 -2.1875q-3.515625 0 -6.171875 1.875q-2.65625 1.875 -4.140625 4.921875l0 30.125015l-7.234375 0l0 -42.26564l6.84375 0z" fill-rule="nonzero"/><path fill="#000000" d="m463.13022 329.9576l-13.359375 0l0 23.015625l-7.546875 0l0 -56.875l18.828125 0q9.609375 0 14.78125 4.375q5.1875 4.375 5.1875 12.734375q0 5.3125 -2.875 9.265625q-2.875 3.9375 -7.984375 5.890625l13.359375 24.140625l0 0.46875l-8.046875 0l-12.34375 -23.015625zm-13.359375 -6.125l11.515625 0q5.59375 0 8.890625 -2.890625q3.296875 -2.890625 3.296875 -7.734375q0 -5.28125 -3.140625 -8.09375q-3.140625 -2.8125 -9.078125 -2.84375l-11.484375 0l0 21.5625zm58.164062 29.921875q-8.59375 0 -13.984375 -5.640625q-5.390625 -5.65625 -5.390625 -15.109375l0 -1.328125q0 -6.28125 2.390625 -11.21875q2.40625 -4.953125 6.71875 -7.734375q4.328125 -2.796875 9.359375 -2.796875q8.2499695 0 12.8124695 5.4375q4.578125 5.421875 4.578125 15.53125l0 3.015625l-28.640594 0q0.15625 6.25 3.65625 10.09375q3.5 3.84375 8.890625 3.84375q3.8280945 0 6.4843445 -1.5625q2.65625 -1.5625 4.640625 -4.140625l4.421875 3.4375q-5.3125 8.171875 -15.9374695 8.171875zm-0.90625 -37.890625q-4.375 0 -7.34375 3.1875q-2.96875 3.171875 -3.671875 8.921875l21.171844 0l0 -0.546875q-0.3125 -5.515625 -2.96875 -8.53125q-2.6562195 -3.03125 -7.1874695 -3.03125zm61.445282 16.4375q0 9.65625 -4.421875 15.5625q-4.40625 5.890625 -11.9375 5.890625q-7.703125 0 -12.109375 -4.890625l0 20.359375l-7.234375 0l0 -58.515625l6.609375 0l0.34375 4.6875q4.421875 -5.46875 12.265625 -5.46875q7.625 0 12.046875 5.75q4.4375 5.734375 4.4375 15.96875l0 0.65625zm-7.21875 -0.8125q0 -7.15625 -3.046875 -11.296875q-3.046875 -4.140625 -8.359375 -4.140625q-6.5625 0 -9.84375 5.828125l0 20.1875q3.234375 5.78125 9.921875 5.78125q5.1875 0 8.25 -4.109375q3.078125 -4.125 3.078125 -12.25zm36.835938 -14.296875q-1.640625 -0.28125 -3.5625 -0.28125q-7.109375 0 -9.640625 6.0625l0 30.0l-7.234375 0l0 -42.265625l7.03125 0l0.125 4.875q3.546875 -5.65625 10.078125 -5.65625q2.109375 0 3.203125 0.546875l0 6.71875zm24.179688 36.5625q-8.59375 0 -13.984375 -5.640625q-5.390625 -5.65625 -5.390625 -15.109375l0 -1.328125q0 -6.28125 2.390625 -11.21875q2.40625 -4.953125 6.71875 -7.734375q4.328125 -2.796875 9.359375 -2.796875q8.25 0 12.8125 5.4375q4.578125 5.421875 4.578125 15.53125l0 3.015625l-28.640625 0q0.15625 6.25 3.65625 10.09375q3.5 3.84375 8.890625 3.84375q3.828125 0 6.484375 -1.5625q2.65625 -1.5625 4.640625 -4.140625l4.421875 3.4375q-5.3125 8.171875 -15.9375 8.171875zm-0.90625 -37.890625q-4.375 0 -7.34375 3.1875q-2.96875 3.171875 -3.671875 8.921875l21.171875 0l0 -0.546875q-0.3125 -5.515625 -2.96875 -8.53125q-2.65625 -3.03125 -7.1875 -3.03125zm50.351562 25.890625q0 -2.921875 -2.203125 -4.546875q-2.203125 -1.625 -7.703125 -2.796875q-5.484375 -1.171875 -8.703125 -2.8125q-3.21875 -1.640625 -4.765625 -3.90625q-1.546875 -2.265625 -1.546875 -5.390625q0 -5.1875 4.390625 -8.78125q4.40625 -3.59375 11.234375 -3.59375q7.1875 0 11.65625 3.71875q4.484375 3.703125 4.484375 9.484375l-7.265625 0q0 -2.96875 -2.53125 -5.109375q-2.515625 -2.15625 -6.34375 -2.15625q-3.9375 0 -6.171875 1.71875q-2.21875 1.71875 -2.21875 4.484375q0 2.625 2.0625 3.953125q2.078125 1.328125 7.484375 2.546875q5.40625 1.203125 8.765625 2.890625q3.359375 1.671875 4.984375 4.03125q1.625 2.359375 1.625 5.765625q0 5.65625 -4.53125 9.078125q-4.53125 3.421875 -11.765625 3.421875q-5.078125 0 -8.984375 -1.796875q-3.90625 -1.796875 -6.109375 -5.015625q-2.203125 -3.234375 -2.203125 -6.984375l7.21875 0q0.203125 3.640625 2.90625 5.765625q2.71875 2.125 7.171875 2.125q4.109375 0 6.578125 -1.65625q2.484375 -1.65625 2.484375 -4.4375zm34.1875 12.0q-8.59375 0 -13.984375 -5.640625q-5.390625 -5.65625 -5.390625 -15.109375l0 -1.328125q0 -6.28125 2.390625 -11.21875q2.40625 -4.953125 6.71875 -7.734375q4.328125 -2.796875 9.359375 -2.796875q8.25 0 12.8125 5.4375q4.578125 5.421875 4.578125 15.53125l0 3.015625l-28.640625 0q0.15625 6.25 3.65625 10.09375q3.5 3.84375 8.890625 3.84375q3.828125 0 6.484375 -1.5625q2.65625 -1.5625 4.640625 -4.140625l4.421875 3.4375q-5.3125 8.171875 -15.9375 8.171875zm-0.90625 -37.890625q-4.375 0 -7.34375 3.1875q-2.96875 3.171875 -3.671875 8.921875l21.171875 0l0 -0.546875q-0.3125 -5.515625 -2.96875 -8.53125q-2.65625 -3.03125 -7.1875 -3.03125zm32.585938 -5.15625l0.234375 5.3125q4.84375 -6.09375 12.65625 -6.09375q13.390625 0 13.515625 15.109375l0 27.9375l-7.234375 0l0 -27.96875q-0.03125 -4.578125 -2.09375 -6.765625q-2.046875 -2.1875 -6.375 -2.1875q-3.515625 0 -6.171875 1.875q-2.65625 1.875 -4.140625 4.921875l0 30.125l-7.234375 0l0 -42.265625l6.84375 0zm47.109375 -10.234375l0 10.234375l7.890625 0l0 5.578125l-7.890625 0l0 26.21875q0 2.53125 1.046875 3.8125q1.0625 1.265625 3.59375 1.265625q1.25 0 3.4375 -0.46875l0 5.859375q-2.84375 0.78125 -5.546875 0.78125q-4.84375 0 -7.3125 -2.921875q-2.453125 -2.9375 -2.453125 -8.328125l0 -26.21875l-7.6875 0l0 -5.578125l7.6875 0l0 -10.234375l7.234375 0zm42.414062 52.5q-0.625 -1.25 -1.015625 -4.453125q-5.03125 5.234375 -12.03125 5.234375q-6.25 0 -10.25 -3.53125q-4.0 -3.546875 -4.0 -8.96875q0 -6.609375 5.015625 -10.25q5.015625 -3.65625 14.125 -3.65625l7.03125 0l0 -3.328125q0 -3.78125 -2.265625 -6.03125q-2.265625 -2.25 -6.6875 -2.25q-3.859375 0 -6.484375 1.953125q-2.609375 1.953125 -2.609375 4.734375l-7.265625 0q0 -3.171875 2.234375 -6.109375q2.25 -2.953125 6.09375 -4.671875q3.859375 -1.71875 8.46875 -1.71875q7.296875 0 11.4375 3.65625q4.140625 3.640625 4.296875 10.046875l0 19.453125q0 5.828125 1.484375 9.265625l0 0.625l-7.578125 0zm-11.984375 -5.515625q3.390625 0 6.4375 -1.75q3.046875 -1.765625 4.421875 -4.578125l0 -8.671875l-5.671875 0q-13.28125 0 -13.28125 7.78125q0 3.390625 2.265625 5.3125q2.265625 1.90625 5.828125 1.90625zm39.21875 -46.984375l0 10.234375l7.890625 0l0 5.578125l-7.890625 0l0 26.21875q0 2.53125 1.046875 3.8125q1.0625 1.265625 3.59375 1.265625q1.25 0 3.4375 -0.46875l0 5.859375q-2.84375 0.78125 -5.546875 0.78125q-4.84375 0 -7.3125 -2.921875q-2.453125 -2.9375 -2.453125 -8.328125l0 -26.21875l-7.6875 0l0 -5.578125l7.6875 0l0 -10.234375l7.234375 0zm24.179688 52.5l-7.234375 0l0 -42.265625l7.234375 0l0 42.265625zm-7.8125 -53.484375q0 -1.75 1.0625 -2.953125q1.078125 -1.21875 3.1875 -1.21875q2.109375 0 3.203125 1.21875q1.09375 1.203125 1.09375 2.96875q0 1.75 -1.09375 2.921875q-1.09375 1.171875 -3.203125 1.171875q-2.109375 0 -3.1875 -1.171875q-1.0625 -1.171875 -1.0625 -2.9375zm33.320312 43.671875l10.46875 -32.453125l7.375 0l-15.15625 42.265625l-5.5 0l-15.3125 -42.265625l7.375 0l10.75 32.453125zm42.34375 10.59375q-8.59375 0 -13.984375 -5.640625q-5.390625 -5.65625 -5.390625 -15.109375l0 -1.328125q0 -6.28125 2.390625 -11.21875q2.40625 -4.953125 6.71875 -7.734375q4.328125 -2.796875 9.359375 -2.796875q8.25 0 12.8125 5.4375q4.578125 5.421875 4.578125 15.53125l0 3.015625l-28.640625 0q0.15625 6.25 3.65625 10.09375q3.5 3.84375 8.890625 3.84375q3.828125 0 6.484375 -1.5625q2.65625 -1.5625 4.640625 -4.140625l4.421875 3.4375q-5.3125 8.171875 -15.9375 8.171875zm-0.90625 -37.890625q-4.375 0 -7.34375 3.1875q-2.96875 3.171875 -3.671875 8.921875l21.171875 0l0 -0.546875q-0.3125 -5.515625 -2.96875 -8.53125q-2.65625 -3.03125 -7.1875 -3.03125zm50.351562 25.890625q0 -2.921875 -2.203125 -4.546875q-2.203125 -1.625 -7.703125 -2.796875q-5.484375 -1.171875 -8.703125 -2.8125q-3.21875 -1.640625 -4.765625 -3.90625q-1.546875 -2.265625 -1.546875 -5.390625q0 -5.1875 4.390625 -8.78125q4.40625 -3.59375 11.234375 -3.59375q7.1875 0 11.65625 3.71875q4.484375 3.703125 4.484375 9.484375l-7.265625 0q0 -2.96875 -2.53125 -5.109375q-2.515625 -2.15625 -6.34375 -2.15625q-3.9375 0 -6.171875 1.71875q-2.21875 1.71875 -2.21875 4.484375q0 2.625 2.0625 3.953125q2.078125 1.328125 7.484375 2.546875q5.40625 1.203125 8.765625 2.890625q3.359375 1.671875 4.984375 4.03125q1.625 2.359375 1.625 5.765625q0 5.65625 -4.53125 9.078125q-4.53125 3.421875 -11.765625 3.421875q-5.078125 0 -8.984375 -1.796875q-3.90625 -1.796875 -6.109375 -5.015625q-2.203125 -3.234375 -2.203125 -6.984375l7.21875 0q0.203125 3.640625 2.90625 5.765625q2.71875 2.125 7.171875 2.125q4.109375 0 6.578125 -1.65625q2.484375 -1.65625 2.484375 -4.4375z" fill-rule="nonzero"/></g></svg>