<svg version="1.1" viewBox="0.0 0.0 1017.2624671916011 416.3359580052493" fill="none" stroke="none" stroke-linecap="square" stroke-miterlimit="10" xmlns:xlink="http://www.w3.org/1999/xlink" xmlns="http://www.w3.org/2000/svg"><clipPath id="p.0"><path d="m0 0l1017.26245 0l0 416.33597l-1017.26245 0l0 -416.33597z" clip-rule="nonzero"/></clipPath><g clip-path="url(#p.0)"><path fill="#000000" fill-opacity="0.0" d="m0 0l1017.26245 0l0 416.33597l-1017.26245 0z" fill-rule="evenodd"/><path fill="#1c4587" d="m0 32.078064l0 0c0 -2.8117847 2.279403 -5.0911865 5.091189 -5.0911865l352.77826 0c1.3502502 0 2.6452332 0.5363903 3.600006 1.4911747c0.95477295 0.9547825 1.4911804 2.2497463 1.4911804 3.6000118l0 352.17984c0 2.8117676 -2.279419 5.0911865 -5.0911865 5.0911865l-352.77826 0c-2.811786 0 -5.091189 -2.279419 -5.091189 -5.0911865z" fill-rule="evenodd"/><path fill="#000000" fill-opacity="0.0" d="m413.20865 10.845144l562.1732 0l0 394.64566l-562.1732 0z" fill-rule="evenodd"/><path fill="#000000" d="m459.02115 119.65923l-23.421875 0l0 19.140617l27.203125 0l0 5.828125l-34.328125 0l0 -54.031242l33.96875 0l0 5.859375l-26.84375 0l0 17.375l23.421875 0l0 5.828125zm36.367188 20.999992q-4.0 4.71875 -11.765625 4.71875q-6.421875 0 -9.78125 -3.734375q-3.359375 -3.734375 -3.390625 -11.046875l0 -26.124992l6.859375 0l0 25.937492q0 9.140625 7.421875 9.140625q7.875 0 10.46875 -5.875l0 -29.203117l6.875 0l0 40.156242l-6.53125 0l-0.15625 -3.96875zm36.521515 -30.031242q-1.5625 -0.25 -3.375 -0.25q-6.765625 0 -9.171875 5.75l0 28.499992l-6.859375 0l0 -40.156242l6.671875 0l0.109375 4.640625q3.375 -5.375 9.578125 -5.375q2.0 0 3.046875 0.515625l0 6.375zm4.482422 13.546875q0 -5.890625 2.3125 -10.609375q2.328125 -4.71875 6.46875 -7.265625q4.140625 -2.5625 9.4375 -2.5625q8.203125 0 13.265625 5.671875q5.078125 5.671875 5.078125 15.109375l0 0.484375q0 5.8593674 -2.25 10.515617q-2.25 4.65625 -6.421875 7.265625q-4.171875 2.59375 -9.59375 2.59375q-8.15625 0 -13.234375 -5.671875q-5.0625 -5.6875 -5.0625 -15.046867l0 -0.484375zm6.90625 0.828125q0 6.6718674 3.09375 10.718742q3.109375 4.046875 8.296875 4.046875q5.234375 0 8.3125 -4.09375q3.078125 -4.109375 3.078125 -11.499992q0 -6.59375 -3.140625 -10.6875q-3.125 -4.109375 -8.328125 -4.109375q-5.078125 0 -8.203125 4.046875q-3.109375 4.03125 -3.109375 11.578125zm72.171875 0q0 9.156242 -4.1875 14.765617q-4.1875 5.609375 -11.359375 5.609375q-7.3125 0 -11.5 -4.640625l0 19.328125l-6.859375 0l0 -55.593742l6.265625 0l0.328125 4.453125q4.203125 -5.1875 11.65625 -5.1875q7.234375 0 11.4375 5.453125q4.21875 5.453125 4.21875 15.171875l0 0.640625zm-6.859375 -0.78125q0 -6.796875 -2.90625 -10.71875q-2.890625 -3.9375 -7.9375 -3.9375q-6.234375 0 -9.34375 5.515625l0 19.187492q3.078125 5.5 9.421875 5.5q4.9375 0 7.84375 -3.90625q2.921875 -3.921875 2.921875 -11.640617zm32.248047 21.156242q-8.171875 0 -13.296875 -5.359375q-5.109375 -5.375 -5.109375 -14.359367l0 -1.25q0 -5.984375 2.28125 -10.671875q2.28125 -4.703125 6.375 -7.34375q4.109375 -2.65625 8.890625 -2.65625q7.828125 0 12.171875 5.15625q4.34375 5.15625 4.34375 14.765625l0 2.859375l-27.203125 0q0.15625 5.9374924 3.46875 9.593742q3.328125 3.65625 8.453125 3.65625q3.625 0 6.140625 -1.484375q2.53125 -1.484375 4.4375 -3.9375l4.1875 3.265625q-5.046875 7.765625 -15.140625 7.765625zm-0.859375 -35.999992q-4.15625 0 -6.984375 3.03125q-2.8125 3.015625 -3.46875 8.46875l20.109375 0l0 -0.515625q-0.296875 -5.234375 -2.828125 -8.109375q-2.515625 -2.875 -6.828125 -2.875zm49.248047 35.249992q-0.59375 -1.1875 -0.96875 -4.234375q-4.78125 4.984375 -11.421875 4.984375q-5.9375 0 -9.75 -3.359375q-3.796875 -3.359375 -3.796875 -8.53125q0 -6.2656174 4.765625 -9.734367q4.765625 -3.46875 13.421875 -3.46875l6.671875 0l0 -3.15625q0 -3.59375 -2.15625 -5.71875q-2.140625 -2.140625 -6.34375 -2.140625q-3.671875 0 -6.15625 1.859375q-2.484375 1.84375 -2.484375 4.484375l-6.90625 0q0 -3.015625 2.125 -5.8125q2.140625 -2.796875 5.796875 -4.421875q3.65625 -1.640625 8.03125 -1.640625q6.953125 0 10.875 3.46875q3.9375 3.46875 4.09375 9.546875l0 18.484367q0 5.53125 1.40625 8.796875l0 0.59375l-7.203125 0zm-11.390625 -5.234375q3.234375 0 6.125 -1.671875q2.890625 -1.671875 4.1875 -4.34375l0 -8.234367l-5.375 0q-12.625 0 -12.625 7.3906174q0 3.21875 2.15625 5.046875q2.15625 1.8125 5.53125 1.8125zm34.433594 -34.921867l0.21875 5.046875q4.609375 -5.78125 12.03125 -5.78125q12.734375 0 12.84375 14.359375l0 26.531242l-6.875 0l0 -26.578117q-0.03125 -4.328125 -1.984375 -6.40625q-1.9375 -2.078125 -6.0625 -2.078125q-3.34375 0 -5.875 1.78125q-2.515625 1.78125 -3.921875 4.671875l0 28.609367l-6.859375 0l0 -40.156242l6.484375 0zm93.37305 -13.875l0 36.734375q-0.046875 7.6406174 -4.8125 12.515617q-4.765625 4.859375 -12.921875 5.453125l-1.90625 0.078125q-8.859375 0 -14.140625 -4.78125q-5.265625 -4.796875 -5.328125 -13.187492l0 -36.8125l7.046875 0l0 36.59375q0 5.8593674 3.21875 9.109367q3.234375 3.25 9.203125 3.25q6.0625 0 9.265625 -3.234375q3.203125 -3.234375 3.203125 -9.093742l0 -36.625l7.171875 0zm16.65625 13.875l0.21875 5.046875q4.609375 -5.78125 12.03125 -5.78125q12.734375 0 12.84375 14.359375l0 26.531242l-6.875 0l0 -26.578117q-0.03125 -4.328125 -1.984375 -6.40625q-1.9375 -2.078125 -6.0625 -2.078125q-3.34375 0 -5.875 1.78125q-2.515625 1.78125 -3.921875 4.671875l0 28.609367l-6.859375 0l0 -40.156242l6.484375 0zm42.902344 40.156242l-6.859375 0l0 -40.156242l6.859375 0l0 40.156242zm-7.421875 -50.796867q0 -1.671875 1.015625 -2.828125q1.03125 -1.15625 3.03125 -1.15625q2.0 0 3.03125 1.15625q1.046875 1.15625 1.046875 2.828125q0 1.65625 -1.046875 2.78125q-1.03125 1.109375 -3.03125 1.109375q-2.0 0 -3.03125 -1.109375q-1.015625 -1.125 -1.015625 -2.78125zm16.583984 30.34375q0 -5.890625 2.3125 -10.609375q2.328125 -4.71875 6.46875 -7.265625q4.140625 -2.5625 9.4375 -2.5625q8.203125 0 13.265625 5.671875q5.078125 5.671875 5.078125 15.109375l0 0.484375q0 5.8593674 -2.25 10.515617q-2.25 4.65625 -6.421875 7.265625q-4.171875 2.59375 -9.59375 2.59375q-8.15625 0 -13.234375 -5.671875q-5.0625 -5.6875 -5.0625 -15.046867l0 -0.484375zm6.90625 0.828125q0 6.6718674 3.09375 10.718742q3.109375 4.046875 8.296875 4.046875q5.234375 0 8.3125 -4.09375q3.078125 -4.109375 3.078125 -11.499992q0 -6.59375 -3.140625 -10.6875q-3.125 -4.109375 -8.328125 -4.109375q-5.078125 0 -8.203125 4.046875q-3.109375 4.03125 -3.109375 11.578125zm44.75 -20.53125l0.21875 5.046875q4.609375 -5.78125 12.03125 -5.78125q12.734375 0 12.84375 14.359375l0 26.531242l-6.875 0l0 -26.578117q-0.03125 -4.328125 -1.984375 -6.40625q-1.9375 -2.078125 -6.0625 -2.078125q-3.34375 0 -5.875 1.78125q-2.515625 1.78125 -3.921875 4.671875l0 28.609367l-6.859375 0l0 -40.156242l6.484375 0z" fill-rule="nonzero"/><path fill="#000000" d="m428.47427 235.62798l0 -54.03125l15.265625 0q7.046875 0 12.453125 3.125q5.421875 3.109375 8.375 8.859375q2.953125 5.75 2.984375 13.21875l0 3.4375q0 7.65625 -2.953125 13.40625q-2.9375 5.75 -8.421875 8.828125q-5.46875 3.078125 -12.734375 3.15625l-14.96875 0zm7.125 -48.171875l0 42.34375l7.5 0q8.234375 0 12.8125 -5.109375q4.59375 -5.125 4.59375 -14.59375l0 -3.15625q0 -9.203125 -4.328125 -14.296875q-4.3125 -5.109375 -12.265625 -5.1875l-8.3125 0zm66.43164 48.171875q-0.59375 -1.1875 -0.96875 -4.234375q-4.78125 4.984375 -11.421875 4.984375q-5.9375 0 -9.75 -3.359375q-3.796875 -3.359375 -3.796875 -8.53125q0 -6.265625 4.765625 -9.734375q4.765625 -3.46875 13.421875 -3.46875l6.671875 0l0 -3.15625q0 -3.59375 -2.15625 -5.71875q-2.140625 -2.140625 -6.34375 -2.140625q-3.671875 0 -6.15625 1.859375q-2.484375 1.84375 -2.484375 4.484375l-6.90625 0q0 -3.015625 2.125 -5.8125q2.140625 -2.796875 5.796875 -4.421875q3.65625 -1.640625 8.03125 -1.640625q6.953125 0 10.875 3.46875q3.9375 3.46875 4.09375 9.546875l0 18.484375q0 5.53125 1.40625 8.796875l0 0.59375l-7.203125 0zm-11.390625 -5.234375q3.234375 0 6.125 -1.671875q2.890625 -1.671875 4.1875 -4.34375l0 -8.234375l-5.375 0q-12.625 0 -12.625 7.390625q0 3.21875 2.15625 5.046875q2.15625 1.8125 5.53125 1.8125zm37.26175 -44.640625l0 9.71875l7.484375 0l0 5.3125l-7.484375 0l0 24.890625q0 2.421875 1.0 3.625q1.0 1.203125 3.40625 1.203125q1.1875 0 3.265625 -0.4375l0 5.5625q-2.703125 0.75 -5.265625 0.75q-4.59375 0 -6.9375 -2.78125q-2.34375 -2.796875 -2.34375 -7.921875l0 -24.890625l-7.3125 0l0 -5.3125l7.3125 0l0 -9.71875l6.875 0zm40.29492 49.875q-0.59375 -1.1875 -0.96875 -4.234375q-4.78125 4.984375 -11.421875 4.984375q-5.9375 0 -9.75 -3.359375q-3.796875 -3.359375 -3.796875 -8.53125q0 -6.265625 4.765625 -9.734375q4.765625 -3.46875 13.421875 -3.46875l6.671875 0l0 -3.15625q0 -3.59375 -2.15625 -5.71875q-2.140625 -2.140625 -6.34375 -2.140625q-3.671875 0 -6.15625 1.859375q-2.484375 1.84375 -2.484375 4.484375l-6.90625 0q0 -3.015625 2.125 -5.8125q2.140625 -2.796875 5.796875 -4.421875q3.65625 -1.640625 8.03125 -1.640625q6.953125 0 10.875 3.46875q3.9375 3.46875 4.09375 9.546875l0 18.484375q0 5.53125 1.40625 8.796875l0 0.59375l-7.203125 0zm-11.390625 -5.234375q3.234375 0 6.125 -1.671875q2.890625 -1.671875 4.1875 -4.34375l0 -8.234375l-5.375 0q-12.625 0 -12.625 7.390625q0 3.21875 2.15625 5.046875q2.15625 1.8125 5.53125 1.8125zm54.95117 -15.921875l0 21.15625l-7.125 0l0 -54.03125l19.9375 0q8.859375 0 13.890625 4.53125q5.03125 4.515625 5.03125 11.984375q0 7.859375 -4.921875 12.109375q-4.90625 4.25 -14.078125 4.25l-12.734375 0zm0 -5.828125l12.8125 0q5.71875 0 8.75 -2.6875q3.046875 -2.6875 3.046875 -7.765625q0 -4.828125 -3.046875 -7.71875q-3.03125 -2.90625 -8.34375 -3.015625l-13.21875 0l0 21.1875zm59.164062 -7.015625q-1.5625 -0.25 -3.375 -0.25q-6.765625 0 -9.171875 5.75l0 28.5l-6.859375 0l0 -40.15625l6.671875 0l0.109375 4.640625q3.375 -5.375 9.578125 -5.375q2.0 0 3.046875 0.515625l0 6.375zm4.482422 13.546875q0 -5.890625 2.3125 -10.609375q2.328125 -4.71875 6.46875 -7.265625q4.140625 -2.5625 9.4375 -2.5625q8.203125 0 13.265625 5.671875q5.078125 5.671875 5.078125 15.109375l0 0.484375q0 5.859375 -2.25 10.515625q-2.25 4.65625 -6.421875 7.265625q-4.171875 2.59375 -9.59375 2.59375q-8.15625 0 -13.234375 -5.671875q-5.0625 -5.6875 -5.0625 -15.046875l0 -0.484375zm6.90625 0.828125q0 6.671875 3.09375 10.71875q3.109375 4.046875 8.296875 4.046875q5.234375 0 8.3125 -4.09375q3.078125 -4.109375 3.078125 -11.5q0 -6.59375 -3.140625 -10.6875q-3.125 -4.109375 -8.328125 -4.109375q-5.078125 0 -8.203125 4.046875q-3.109375 4.03125 -3.109375 11.578125zm47.578125 -30.25l0 9.71875l7.484375 0l0 5.3125l-7.484375 0l0 24.890625q0 2.421875 1.0 3.625q1.0 1.203125 3.40625 1.203125q1.1875 0 3.265625 -0.4375l0 5.5625q-2.703125 0.75 -5.265625 0.75q-4.59375 0 -6.9375 -2.78125q-2.34375 -2.796875 -2.34375 -7.921875l0 -24.890625l-7.3125 0l0 -5.3125l7.3125 0l0 -9.71875l6.875 0zm32.16992 50.625q-8.171875 0 -13.296875 -5.359375q-5.109375 -5.375 -5.109375 -14.359375l0 -1.25q0 -5.984375 2.28125 -10.671875q2.28125 -4.703125 6.375 -7.34375q4.109375 -2.65625 8.890625 -2.65625q7.828125 0 12.171875 5.15625q4.34375 5.15625 4.34375 14.765625l0 2.859375l-27.203125 0q0.15625 5.9375 3.46875 9.59375q3.328125 3.65625 8.453125 3.65625q3.625 0 6.140625 -1.484375q2.53125 -1.484375 4.4375 -3.9375l4.1875 3.265625q-5.046875 7.765625 -15.140625 7.765625zm-0.859375 -36.0q-4.15625 0 -6.984375 3.03125q-2.8125 3.015625 -3.46875 8.46875l20.109375 0l0 -0.515625q-0.296875 -5.234375 -2.828125 -8.109375q-2.515625 -2.875 -6.828125 -2.875zm40.560547 30.390625q3.671875 0 6.421875 -2.21875q2.75 -2.234375 3.046875 -5.578125l6.5 0q-0.1875 3.453125 -2.390625 6.578125q-2.1875 3.109375 -5.84375 4.96875q-3.640625 1.859375 -7.734375 1.859375q-8.203125 0 -13.046875 -5.46875q-4.828125 -5.484375 -4.828125 -14.984375l0 -1.15625q0 -5.859375 2.140625 -10.421875q2.15625 -4.5625 6.171875 -7.078125q4.03125 -2.53125 9.53125 -2.53125q6.75 0 11.21875 4.046875q4.484375 4.03125 4.78125 10.5l-6.5 0q-0.296875 -3.90625 -2.953125 -6.40625q-2.65625 -2.5 -6.546875 -2.5q-5.234375 0 -8.109375 3.765625q-2.875 3.765625 -2.875 10.890625l0 1.296875q0 6.9375 2.859375 10.6875q2.859375 3.75 8.15625 3.75zm33.0 -45.015625l0 9.71875l7.484375 0l0 5.3125l-7.484375 0l0 24.890625q0 2.421875 1.0 3.625q1.0 1.203125 3.40625 1.203125q1.1875 0 3.265625 -0.4375l0 5.5625q-2.703125 0.75 -5.265625 0.75q-4.59375 0 -6.9375 -2.78125q-2.34375 -2.796875 -2.34375 -7.921875l0 -24.890625l-7.3125 0l0 -5.3125l7.3125 0l0 -9.71875l6.875 0zm22.966797 49.875l-6.859375 0l0 -40.15625l6.859375 0l0 40.15625zm-7.421875 -50.796875q0 -1.671875 1.015625 -2.828125q1.03125 -1.15625 3.03125 -1.15625q2.0 0 3.03125 1.15625q1.046875 1.15625 1.046875 2.828125q0 1.65625 -1.046875 2.78125q-1.03125 1.109375 -3.03125 1.109375q-2.0 0 -3.03125 -1.109375q-1.015625 -1.125 -1.015625 -2.78125zm16.583984 30.34375q0 -5.890625 2.3125 -10.609375q2.328125 -4.71875 6.46875 -7.265625q4.140625 -2.5625 9.4375 -2.5625q8.203125 0 13.265625 5.671875q5.078125 5.671875 5.078125 15.109375l0 0.484375q0 5.859375 -2.25 10.515625q-2.25 4.65625 -6.421875 7.265625q-4.171875 2.59375 -9.59375 2.59375q-8.15625 0 -13.234375 -5.671875q-5.0625 -5.6875 -5.0625 -15.046875l0 -0.484375zm6.90625 0.828125q0 6.671875 3.09375 10.71875q3.109375 4.046875 8.296875 4.046875q5.234375 0 8.3125 -4.09375q3.078125 -4.109375 3.078125 -11.5q0 -6.59375 -3.140625 -10.6875q-3.125 -4.109375 -8.328125 -4.109375q-5.078125 0 -8.203125 4.046875q-3.109375 4.03125 -3.109375 11.578125zm44.75 -20.53125l0.21875 5.046875q4.609375 -5.78125 12.03125 -5.78125q12.734375 0 12.84375 14.359375l0 26.53125l-6.875 0l0 -26.578125q-0.03125 -4.328125 -1.984375 -6.40625q-1.9375 -2.078125 -6.0625 -2.078125q-3.34375 0 -5.875 1.78125q-2.515625 1.78125 -3.921875 4.671875l0 28.609375l-6.859375 0l0 -40.15625l6.484375 0z" fill-rule="nonzero"/><path fill="#000000" d="m448.3024 304.76862l-12.703125 0l0 21.859375l-7.15625 0l0 -54.03125l17.890625 0q9.125 0 14.03125 4.15625q4.921875 4.15625 4.921875 12.09375q0 5.046875 -2.734375 8.796875q-2.71875 3.75 -7.578125 5.609375l12.6875 22.921875l0 0.453125l-7.640625 0l-11.71875 -21.859375zm-12.703125 -5.828125l10.953125 0q5.3125 0 8.4375 -2.734375q3.140625 -2.75 3.140625 -7.359375q0 -5.0 -2.984375 -7.671875q-2.984375 -2.671875 -8.625 -2.71875l-10.921875 0l0 20.484375zm55.26367 28.4375q-8.171875 0 -13.296875 -5.359375q-5.109375 -5.375 -5.109375 -14.359375l0 -1.25q0 -5.984375 2.28125 -10.671875q2.28125 -4.703125 6.375 -7.34375q4.109375 -2.65625 8.890625 -2.65625q7.828125 0 12.171875 5.15625q4.34375 5.15625 4.34375 14.765625l0 2.859375l-27.203125 0q0.15625 5.9375 3.46875 9.59375q3.328125 3.65625 8.453125 3.65625q3.625 0 6.140625 -1.484375q2.53125 -1.484375 4.4375 -3.9375l4.1875 3.265625q-5.046875 7.765625 -15.140625 7.765625zm-0.859375 -36.0q-4.15625 0 -6.984375 3.03125q-2.8125 3.015625 -3.46875 8.46875l20.109375 0l0 -0.515625q-0.296875 -5.234375 -2.828125 -8.109375q-2.515625 -2.875 -6.828125 -2.875zm58.373077 15.625q0 9.15625 -4.1875 14.765625q-4.1875 5.609375 -11.359375 5.609375q-7.3125 0 -11.5 -4.640625l0 19.328125l-6.859375 0l0 -55.59375l6.265625 0l0.328125 4.453125q4.203125 -5.1875 11.65625 -5.1875q7.234375 0 11.4375 5.453125q4.21875 5.453125 4.21875 15.171875l0 0.640625zm-6.859375 -0.78125q0 -6.796875 -2.90625 -10.71875q-2.890625 -3.9375 -7.9375 -3.9375q-6.234375 0 -9.34375 5.515625l0 19.1875q3.078125 5.5 9.421875 5.5q4.9375 0 7.84375 -3.90625q2.921875 -3.921875 2.921875 -11.640625zm34.998047 -13.59375q-1.5625 -0.25 -3.375 -0.25q-6.765625 0 -9.171875 5.75l0 28.5l-6.859375 0l0 -40.15625l6.671875 0l0.109375 4.640625q3.375 -5.375 9.578125 -5.375q2.0 0 3.046875 0.515625l0 6.375zm22.966797 34.75q-8.171875 0 -13.296875 -5.359375q-5.109375 -5.375 -5.109375 -14.359375l0 -1.25q0 -5.984375 2.28125 -10.671875q2.28125 -4.703125 6.375 -7.34375q4.109375 -2.65625 8.890625 -2.65625q7.828125 0 12.171875 5.15625q4.34375 5.15625 4.34375 14.765625l0 2.859375l-27.203125 0q0.15625 5.9375 3.46875 9.59375q3.328125 3.65625 8.453125 3.65625q3.625 0 6.140625 -1.484375q2.53125 -1.484375 4.4375 -3.9375l4.1875 3.265625q-5.046875 7.765625 -15.140625 7.765625zm-0.859375 -36.0q-4.15625 0 -6.984375 3.03125q-2.8125 3.015625 -3.46875 8.46875l20.109375 0l0 -0.515625q-0.296875 -5.234375 -2.828125 -8.109375q-2.515625 -2.875 -6.828125 -2.875zm47.841797 24.59375q0 -2.78125 -2.109375 -4.3125q-2.09375 -1.546875 -7.3125 -2.65625q-5.203125 -1.109375 -8.265625 -2.671875q-3.0625 -1.5625 -4.53125 -3.703125q-1.453125 -2.15625 -1.453125 -5.125q0 -4.9375 4.171875 -8.34375q4.171875 -3.421875 10.671875 -3.421875q6.828125 0 11.0625 3.53125q4.25 3.515625 4.25 9.0l-6.890625 0q0 -2.8125 -2.40625 -4.84375q-2.390625 -2.046875 -6.015625 -2.046875q-3.75 0 -5.875 1.640625q-2.109375 1.625 -2.109375 4.25q0 2.484375 1.96875 3.75q1.96875 1.265625 7.109375 2.421875q5.140625 1.140625 8.328125 2.734375q3.1875 1.59375 4.71875 3.84375q1.546875 2.25 1.546875 5.46875q0 5.390625 -4.3125 8.640625q-4.296875 3.25 -11.15625 3.25q-4.828125 0 -8.546875 -1.703125q-3.703125 -1.71875 -5.796875 -4.78125q-2.09375 -3.0625 -2.09375 -6.625l6.859375 0q0.1875 3.453125 2.765625 5.484375q2.578125 2.015625 6.8125 2.015625q3.890625 0 6.25 -1.578125q2.359375 -1.578125 2.359375 -4.21875zm32.46875 11.40625q-8.171875 0 -13.296875 -5.359375q-5.109375 -5.375 -5.109375 -14.359375l0 -1.25q0 -5.984375 2.28125 -10.671875q2.28125 -4.703125 6.375 -7.34375q4.109375 -2.65625 8.890625 -2.65625q7.828125 0 12.171875 5.15625q4.34375 5.15625 4.34375 14.765625l0 2.859375l-27.203125 0q0.15625 5.9375 3.46875 9.59375q3.328125 3.65625 8.453125 3.65625q3.625 0 6.140625 -1.484375q2.53125 -1.484375 4.4375 -3.9375l4.1875 3.265625q-5.046875 7.765625 -15.140625 7.765625zm-0.859375 -36.0q-4.15625 0 -6.984375 3.03125q-2.8125 3.015625 -3.46875 8.46875l20.109375 0l0 -0.515625q-0.296875 -5.234375 -2.828125 -8.109375q-2.515625 -2.875 -6.828125 -2.875zm30.951172 -4.90625l0.21875 5.046875q4.609375 -5.78125 12.03125 -5.78125q12.734375 0 12.84375 14.359375l0 26.53125l-6.875 0l0 -26.578125q-0.03125 -4.328125 -1.984375 -6.40625q-1.9375 -2.078125 -6.0625 -2.078125q-3.34375 0 -5.875 1.78125q-2.515625 1.78125 -3.921875 4.671875l0 28.609375l-6.859375 0l0 -40.15625l6.484375 0zm44.76172 -9.71875l0 9.71875l7.484375 0l0 5.3125l-7.484375 0l0 24.890625q0 2.421875 1.0 3.625q1.0 1.203125 3.40625 1.203125q1.1875 0 3.265625 -0.4375l0 5.5625q-2.703125 0.75 -5.265625 0.75q-4.59375 0 -6.9375 -2.78125q-2.34375 -2.796875 -2.34375 -7.921875l0 -24.890625l-7.3125 0l0 -5.3125l7.3125 0l0 -9.71875l6.875 0zm40.29492 49.875q-0.59375 -1.1875 -0.96875 -4.234375q-4.78125 4.984375 -11.421875 4.984375q-5.9375 0 -9.75 -3.359375q-3.796875 -3.359375 -3.796875 -8.53125q0 -6.265625 4.765625 -9.734375q4.765625 -3.46875 13.421875 -3.46875l6.671875 0l0 -3.15625q0 -3.59375 -2.15625 -5.71875q-2.140625 -2.140625 -6.34375 -2.140625q-3.671875 0 -6.15625 1.859375q-2.484375 1.84375 -2.484375 4.484375l-6.90625 0q0 -3.015625 2.125 -5.8125q2.140625 -2.796875 5.796875 -4.421875q3.65625 -1.640625 8.03125 -1.640625q6.953125 0 10.875 3.46875q3.9375 3.46875 4.09375 9.546875l0 18.484375q0 5.53125 1.40625 8.796875l0 0.59375l-7.203125 0zm-11.390625 -5.234375q3.234375 0 6.125 -1.671875q2.890625 -1.671875 4.1875 -4.34375l0 -8.234375l-5.375 0q-12.625 0 -12.625 7.390625q0 3.21875 2.15625 5.046875q2.15625 1.8125 5.53125 1.8125zm37.26172 -44.640625l0 9.71875l7.484375 0l0 5.3125l-7.484375 0l0 24.890625q0 2.421875 1.0 3.625q1.0 1.203125 3.40625 1.203125q1.1875 0 3.265625 -0.4375l0 5.5625q-2.703125 0.75 -5.265625 0.75q-4.59375 0 -6.9375 -2.78125q-2.34375 -2.796875 -2.34375 -7.921875l0 -24.890625l-7.3125 0l0 -5.3125l7.3125 0l0 -9.71875l6.875 0zm22.966797 49.875l-6.859375 0l0 -40.15625l6.859375 0l0 40.15625zm-7.421875 -50.796875q0 -1.671875 1.015625 -2.828125q1.03125 -1.15625 3.03125 -1.15625q2.0 0 3.03125 1.15625q1.046875 1.15625 1.046875 2.828125q0 1.65625 -1.046875 2.78125q-1.03125 1.109375 -3.03125 1.109375q-2.0 0 -3.03125 -1.109375q-1.015625 -1.125 -1.015625 -2.78125zm31.646484 41.484375l9.953125 -30.84375l7.015625 0l-14.40625 40.15625l-5.234375 0l-14.546875 -40.15625l7.015625 0l10.203125 30.84375zm40.234375 10.0625q-8.171875 0 -13.296875 -5.359375q-5.109375 -5.375 -5.109375 -14.359375l0 -1.25q0 -5.984375 2.28125 -10.671875q2.28125 -4.703125 6.375 -7.34375q4.109375 -2.65625 8.890625 -2.65625q7.828125 0 12.171875 5.15625q4.34375 5.15625 4.34375 14.765625l0 2.859375l-27.203125 0q0.15625 5.9375 3.46875 9.59375q3.328125 3.65625 8.453125 3.65625q3.625 0 6.140625 -1.484375q2.53125 -1.484375 4.4375 -3.9375l4.1875 3.265625q-5.046875 7.765625 -15.140625 7.765625zm-0.859375 -36.0q-4.15625 0 -6.984375 3.03125q-2.8125 3.015625 -3.46875 8.46875l20.109375 0l0 -0.515625q-0.296875 -5.234375 -2.828125 -8.109375q-2.515625 -2.875 -6.828125 -2.875zm47.841797 24.59375q0 -2.78125 -2.109375 -4.3125q-2.09375 -1.546875 -7.3125 -2.65625q-5.203125 -1.109375 -8.265625 -2.671875q-3.0625 -1.5625 -4.53125 -3.703125q-1.453125 -2.15625 -1.453125 -5.125q0 -4.9375 4.171875 -8.34375q4.171875 -3.421875 10.671875 -3.421875q6.828125 0 11.0625 3.53125q4.25 3.515625 4.25 9.0l-6.890625 0q0 -2.8125 -2.40625 -4.84375q-2.390625 -2.046875 -6.015625 -2.046875q-3.75 0 -5.875 1.640625q-2.109375 1.625 -2.109375 4.25q0 2.484375 1.96875 3.75q1.96875 1.265625 7.109375 2.421875q5.140625 1.140625 8.328125 2.734375q3.1875 1.59375 4.71875 3.84375q1.546875 2.25 1.546875 5.46875q0 5.390625 -4.3125 8.640625q-4.296875 3.25 -11.15625 3.25q-4.828125 0 -8.546875 -1.703125q-3.703125 -1.71875 -5.796875 -4.78125q-2.09375 -3.0625 -2.09375 -6.625l6.859375 0q0.1875 3.453125 2.765625 5.484375q2.578125 2.015625 6.8125 2.015625q3.890625 0 6.25 -1.578125q2.359375 -1.578125 2.359375 -4.21875z" fill-rule="nonzero"/><path fill="#ffff00" d="m206.45276 55.044796l9.1653595 4.9025497l0 10.59351l-9.1653595 -4.902542z" fill-rule="evenodd"/><path fill="#ffff00" d="m207.32512 53.807087l9.1653595 -4.8346443l9.165344 4.8346443l-9.165344 4.8346443z" fill-rule="evenodd"/><path fill="#ffff00" d="m226.53117 55.044796l-9.1653595 4.9025497l0 10.59351l9.1653595 -4.902542z" fill-rule="evenodd"/><path fill="#ffff00" d="m317.3566 161.70517l9.165344 4.9025574l0 10.593506l-9.165344 -4.902542z" fill-rule="evenodd"/><path fill="#ffff00" d="m318.22894 160.46747l9.165375 -4.834656l9.165344 4.834656l-9.165344 4.8346405z" fill-rule="evenodd"/><path fill="#ffff00" d="m337.435 161.70517l-9.165344 4.9025574l0 10.593506l9.165344 -4.902542z" fill-rule="evenodd"/><path fill="#ffff00" d="m133.99947 55.044796l9.165344 4.9025497l0 10.59351l-9.165344 -4.902542z" fill-rule="evenodd"/><path fill="#ffff00" d="m134.87183 53.807087l9.165344 -4.8346443l9.1653595 4.8346443l-9.1653595 4.8346443z" fill-rule="evenodd"/><path fill="#ffff00" d="m154.07788 55.044796l-9.1653595 4.9025497l0 10.59351l9.1653595 -4.902542z" fill-rule="evenodd"/><path fill="#ffff00" d="m133.99947 347.84152l9.165344 4.902527l0 10.593536l-9.165344 -4.9025574z" fill-rule="evenodd"/><path fill="#ffff00" d="m134.87183 346.6038l9.165344 -4.8346252l9.1653595 4.8346252l-9.1653595 4.834656z" fill-rule="evenodd"/><path fill="#ffff00" d="m154.07788 347.84152l-9.1653595 4.902527l0 10.593536l9.1653595 -4.9025574z" fill-rule="evenodd"/><path fill="#ffff00" d="m206.45276 347.84152l9.1653595 4.902527l0 10.593536l-9.1653595 -4.9025574z" fill-rule="evenodd"/><path fill="#ffff00" d="m207.32512 346.6038l9.1653595 -4.8346252l9.165344 4.8346252l-9.165344 4.834656z" fill-rule="evenodd"/><path fill="#ffff00" d="m226.53117 347.84152l-9.1653595 4.902527l0 10.593536l9.1653595 -4.9025574z" fill-rule="evenodd"/><path fill="#ffff00" d="m269.24457 311.50275l9.165344 4.902527l0 10.593536l-9.165344 -4.9025574z" fill-rule="evenodd"/><path fill="#ffff00" d="m270.1169 310.265l9.165375 -4.8346252l9.165344 4.8346252l-9.165344 4.834656z" fill-rule="evenodd"/><path fill="#ffff00" d="m289.32297 311.50275l-9.165344 4.902527l0 10.593536l9.165344 -4.9025574z" fill-rule="evenodd"/><path fill="#ffff00" d="m316.49292 238.18338l9.165375 4.9025574l0 10.593506l-9.165375 -4.902542z" fill-rule="evenodd"/><path fill="#ffff00" d="m317.3653 236.94568l9.165344 -4.834656l9.165344 4.834656l-9.165344 4.8346405z" fill-rule="evenodd"/><path fill="#ffff00" d="m336.57135 238.18338l-9.165375 4.9025574l0 10.593506l9.165375 -4.902542z" fill-rule="evenodd"/><path fill="#ffff00" d="m280.15402 95.40874l9.165344 4.9025497l0 10.5935135l-9.165344 -4.9025497z" fill-rule="evenodd"/><path fill="#ffff00" d="m281.0264 94.17103l9.165344 -4.834648l9.165344 4.834648l-9.165344 4.834648z" fill-rule="evenodd"/><path fill="#ffff00" d="m300.23245 95.40874l-9.165375 4.9025497l0 10.5935135l9.165375 -4.9025497z" fill-rule="evenodd"/><path fill="#000000" fill-opacity="0.0" d="m61.52656 110.891106l239.9055 0l0 194.55118l-239.9055 0z" fill-rule="evenodd"/><path fill="#ffffff" d="m112.666824 210.07545l-19.71875 0l0 16.125l22.90625 0l0 4.90625l-28.90625 0l0 -45.5l28.59375 0l0 4.9375l-22.59375 0l0 14.625l19.71875 0l0 4.90625zm42.6875 -24.46875l0 30.9375q-0.03125 6.4375 -4.046875 10.53125q-4.015625 4.09375 -10.890625 4.59375l-1.59375 0.0625q-7.46875 0 -11.90625 -4.03125q-4.4375 -4.03125 -4.5 -11.09375l0 -31.0l5.9375 0l0 30.8125q0 4.9375 2.71875 7.671875q2.71875 2.734375 7.75 2.734375q5.09375 0 7.796875 -2.71875q2.703125 -2.71875 2.703125 -7.65625l0 -30.84375l6.03125 0zm9.46875 45.5l0 -45.5l12.84375 0q5.9375 0 10.5 2.625q4.5625 2.625 7.046875 7.46875q2.484375 4.84375 2.515625 11.125l0 2.90625q0 6.4375 -2.484375 11.28125q-2.484375 4.84375 -7.09375 7.4375q-4.609375 2.59375 -10.734375 2.65625l-12.59375 0zm6.0 -40.5625l0 35.65625l6.3125 0q6.9375 0 10.796875 -4.3125q3.859375 -4.3125 3.859375 -12.28125l0 -2.65625q0 -7.75 -3.640625 -12.046875q-3.640625 -4.296875 -10.328125 -4.359375l-7.0 0zm41.96875 22.75l0 17.8125l-6.0 0l0 -45.5l16.78125 0q7.46875 0 11.703125 3.8125q4.234375 3.8125 4.234375 10.09375q0 6.625 -4.140625 10.203125q-4.140625 3.578125 -11.859375 3.578125l-10.71875 0zm0 -4.90625l10.78125 0q4.8125 0 7.375 -2.265625q2.5625 -2.265625 2.5625 -6.546875q0 -4.0625 -2.5625 -6.5q-2.5625 -2.4375 -7.03125 -2.53125l-11.125 0l0 17.84375zm51.062485 4.3125l-10.687485 0l0 18.40625l-6.03125 0l0 -45.5l15.062485 0q7.6875 0 11.828125 3.5q4.140625 3.5 4.140625 10.1875q0 4.25 -2.296875 7.40625q-2.296875 3.15625 -6.390625 4.71875l10.6875 19.3125l0 0.375l-6.4375 0l-9.875 -18.40625zm-10.687485 -4.90625l9.218735 0q4.46875 0 7.109375 -2.3125q2.640625 -2.3125 2.640625 -6.1875q0 -4.21875 -2.515625 -6.46875q-2.515625 -2.25 -7.265625 -2.28125l-9.187485 0l0 17.25z" fill-rule="nonzero"/><path fill="#ffff00" d="m42.531174 161.70517l-9.165352 4.9025574l0 10.593506l9.165352 -4.902542z" fill-rule="evenodd"/><path fill="#ffff00" d="m41.658817 160.46747l-9.165356 -4.834656l-9.165354 4.834656l9.165354 4.8346405z" fill-rule="evenodd"/><path fill="#ffff00" d="m22.452763 161.70517l9.165354 4.9025574l0 10.593506l-9.165354 -4.902542z" fill-rule="evenodd"/><path fill="#ffff00" d="m90.64321 311.50275l-9.1653595 4.902527l0 10.593536l9.1653595 -4.9025574z" fill-rule="evenodd"/><path fill="#ffff00" d="m89.77085 310.265l-9.165352 -4.8346252l-9.1653595 4.8346252l9.1653595 4.834656z" fill-rule="evenodd"/><path fill="#ffff00" d="m70.5648 311.50275l9.165352 4.902527l0 10.593536l-9.165352 -4.9025574z" fill-rule="evenodd"/><path fill="#ffff00" d="m43.394848 238.18338l-9.165356 4.9025574l0 10.593506l9.165356 -4.902542z" fill-rule="evenodd"/><path fill="#ffff00" d="m42.522488 236.94568l-9.165356 -4.834656l-9.165352 4.834656l9.165352 4.8346405z" fill-rule="evenodd"/><path fill="#ffff00" d="m23.316433 238.18338l9.165356 4.9025574l0 10.593506l-9.165356 -4.902542z" fill-rule="evenodd"/><path fill="#ffff00" d="m79.73375 95.40874l-9.1653595 4.9025497l0 10.5935135l9.1653595 -4.9025497z" fill-rule="evenodd"/><path fill="#ffff00" d="m78.86139 94.17103l-9.165352 -4.834648l-9.165356 4.834648l9.165356 4.834648z" fill-rule="evenodd"/><path fill="#ffff00" d="m59.655334 95.40874l9.165352 4.9025497l0 10.5935135l-9.165352 -4.9025497z" fill-rule="evenodd"/></g></svg>